<svg width="77" height="78" viewBox="0 0 77 78" fill="none" xmlns="http://www.w3.org/2000/svg">
<ellipse cx="38.5" cy="39" rx="38.5" ry="39" fill="#EE312A"/>
<path d="M55.5002 37.8223L39.1795 21.5016C38.8888 21.2101 38.5304 20.9951 38.1364 20.8758C37.7424 20.7565 37.325 20.7366 36.9214 20.8179L24.319 23.3383C24.077 23.3868 23.8548 23.5057 23.6803 23.6802C23.5058 23.8547 23.3869 24.0769 23.3384 24.3189L20.818 36.9213C20.7369 37.3248 20.7568 37.7422 20.8761 38.1362C20.9954 38.5303 21.2104 38.8886 21.5017 39.1794L37.8222 55.4999C38.0544 55.7321 38.33 55.9163 38.6333 56.0419C38.9366 56.1676 39.2618 56.2323 39.5901 56.2323C39.9184 56.2323 40.2435 56.1677 40.5469 56.042C40.8502 55.9164 41.1258 55.7322 41.358 55.5001L55.5 41.3581C55.7322 41.1259 55.9164 40.8503 56.0421 40.547C56.1677 40.2437 56.2324 39.9185 56.2324 39.5902C56.2324 39.2619 56.1678 38.9368 56.0421 38.6334C55.9165 38.3301 55.7323 38.0545 55.5002 37.8223V37.8223ZM31.1242 33.0001C30.7534 33.0001 30.3909 32.8901 30.0825 32.6841C29.7742 32.478 29.5339 32.1852 29.392 31.8426C29.2501 31.5 29.2129 31.123 29.2853 30.7593C29.3576 30.3955 29.5362 30.0615 29.7984 29.7992C30.0606 29.537 30.3947 29.3584 30.7584 29.2861C31.1222 29.2137 31.4992 29.2509 31.8418 29.3928C32.1844 29.5347 32.4772 29.775 32.6832 30.0834C32.8893 30.3917 32.9992 30.7542 32.9992 31.1251C32.9992 31.6223 32.8017 32.0992 32.4501 32.4509C32.0984 32.8025 31.6215 33.0001 31.1242 33.0001Z" fill="white"/>
</svg>
