<svg width="77" height="78" viewBox="0 0 77 78" fill="none" xmlns="http://www.w3.org/2000/svg">
<ellipse cx="38.5" cy="39" rx="38.5" ry="39" fill="#EE312A"/>
<g clip-path="url(#clip0)">
<path d="M48.375 23.2343C43.6405 23.2343 40.5938 26.5389 39 29.5155C37.4062 26.5389 34.3595 23.2343 29.625 23.2343C23.6016 23.2343 19 28.1561 19 34.6718C19 37.3437 19.8984 39.6875 21.3515 41.9843H28.7812L31.875 32.7265L36.7734 44.9843L41.5548 35.4218L43.8985 42.453L45.3047 39.6405H57.8906C58.5702 38.0703 59 36.453 59 34.6718C59 28.1561 54.3984 23.2343 48.375 23.2343ZM43.4765 48.5468L41.1327 41.5155L36.5391 50.703L32.0624 39.5234L30.4687 44.3281H23.086C25.5938 47.3047 29.1095 50.3281 33.375 53.9374C35.3954 55.6471 35.8302 56.0305 39.0001 58.7655C42.156 56.0425 42.5969 55.6536 44.6252 53.9374C49.9688 49.3671 54.2109 45.7577 56.6485 41.9843H46.7578L43.4765 48.5468Z" fill="white"/>
<path d="M21.3515 41.9843C21.8672 42.7812 22.4531 43.5545 23.086 44.328H19V41.9843H21.3515Z" fill="white"/>
<path d="M58.9999 39.6405V41.9843H56.6484C57.1405 41.2107 57.5624 40.4375 57.8905 39.6405H58.9999Z" fill="white"/>
</g>
<defs>
<clipPath id="clip0">
<rect width="40" height="40" fill="white" transform="translate(19 21)"/>
</clipPath>
</defs>
</svg>
