<svg width="77" height="78" viewBox="0 0 77 78" fill="none" xmlns="http://www.w3.org/2000/svg">
<ellipse cx="38.5" cy="39" rx="38.5" ry="39" fill="#00425F"/>
<g clip-path="url(#clip0)">
<path d="M51.3948 21.0089C44.982 21.5741 40.2499 24.7749 37.4913 29.4023C35.6426 31.7199 31.9496 38.7954 30.6065 42.4994C28.1713 47.1054 26.0477 52.5857 24.3858 57.5261C23.37 60.5472 27.9314 62.5182 28.9531 59.4835C30.1959 55.7873 31.6974 51.791 33.3942 48.0825C35.0781 51.8512 36.7891 55.6075 38.6262 59.3043C40.0501 62.1741 44.3347 59.6574 42.916 56.7973C41.0246 52.9918 39.2677 49.1256 37.5366 45.2463C37.5586 45.1713 37.5864 45.0983 37.6097 45.0239C37.8981 45.106 38.2162 45.1312 38.5667 45.0646C41.2153 44.5674 43.864 44.0714 46.5146 43.5741C47.6468 43.3614 48.0807 42.1224 47.9023 41.1305C47.3669 38.1579 45.6733 36.0899 43.5652 34.1332C43.2523 33.0688 42.2086 32.1273 41.0504 31.1916C43.3984 27.3958 47.2317 25.3356 52.2212 24.8959C54.7677 24.6728 53.9193 20.7871 51.3948 21.0089ZM41.7443 37.905C42.3993 38.5866 42.9568 39.3037 43.3777 40.134C42.0961 40.3745 40.8138 40.6144 39.5321 40.855C40.1788 39.8139 40.9231 38.831 41.7443 37.905Z" fill="white"/>
<path d="M47.2279 34.5213C49.1118 34.5213 50.639 32.9941 50.639 31.1103C50.639 29.2264 49.1118 27.6992 47.2279 27.6992C45.3441 27.6992 43.8169 29.2264 43.8169 31.1103C43.8169 32.9941 45.3441 34.5213 47.2279 34.5213Z" fill="white"/>
</g>
<defs>
<clipPath id="clip0">
<rect width="40" height="40" fill="white" transform="translate(19 21)"/>
</clipPath>
</defs>
</svg>
