<svg width="77" height="78" viewBox="0 0 77 78" fill="none" xmlns="http://www.w3.org/2000/svg">
<ellipse cx="38.5" cy="39" rx="38.5" ry="39" fill="#00425F"/>
<path d="M50.5 25H25.5C24.8372 25.0008 24.2017 25.2644 23.7331 25.7331C23.2644 26.2017 23.0008 26.8372 23 27.5V52.5C23.0008 53.1628 23.2644 53.7983 23.7331 54.2669C24.2017 54.7356 24.8372 54.9992 25.5 55H50.5C51.1628 54.9992 51.7983 54.7356 52.2669 54.2669C52.7356 53.7983 52.9992 53.1628 53 52.5V27.5C52.9992 26.8372 52.7356 26.2017 52.2669 25.7331C51.7983 25.2644 51.1628 25.0008 50.5 25ZM30.5 52.5H25.5V27.5H30.5V52.5ZM45.5 43.75H35.5C35.1685 43.75 34.8505 43.6183 34.6161 43.3839C34.3817 43.1495 34.25 42.8315 34.25 42.5C34.25 42.1685 34.3817 41.8505 34.6161 41.6161C34.8505 41.3817 35.1685 41.25 35.5 41.25H45.5C45.8315 41.25 46.1495 41.3817 46.3839 41.6161C46.6183 41.8505 46.75 42.1685 46.75 42.5C46.75 42.8315 46.6183 43.1495 46.3839 43.3839C46.1495 43.6183 45.8315 43.75 45.5 43.75ZM45.5 38.75H35.5C35.1685 38.75 34.8505 38.6183 34.6161 38.3839C34.3817 38.1495 34.25 37.8315 34.25 37.5C34.25 37.1685 34.3817 36.8505 34.6161 36.6161C34.8505 36.3817 35.1685 36.25 35.5 36.25H45.5C45.8315 36.25 46.1495 36.3817 46.3839 36.6161C46.6183 36.8505 46.75 37.1685 46.75 37.5C46.75 37.8315 46.6183 38.1495 46.3839 38.3839C46.1495 38.6183 45.8315 38.75 45.5 38.75Z" fill="white"/>
</svg>
