<svg width="280" height="60" viewBox="0 0 280 60" fill="none" xmlns="http://www.w3.org/2000/svg">
<path d="M252.362 17.0647L251.808 20.2428C252.563 20.0742 253.274 19.9751 253.813 19.9751C256.615 19.9751 258.494 21.879 258.494 25.2207C258.494 29.8516 255.38 33 251.001 33C248.497 33 246.335 31.9935 245 29.7673L248.472 27.3031C248.971 28.3642 249.837 28.9542 250.835 28.9542C252.841 28.9542 253.934 27.3329 253.934 25.4984C253.934 24.1151 253.168 23.4705 252.13 23.4705C251.077 23.4556 250.109 23.9862 249.429 24.5068L247.111 23.5697L248.991 13.0486H259.129L258.63 17.0647H252.372H252.362Z" fill="#00B0D8"/>
<path d="M234.144 54.0538L234.556 50.991H234.812C235.434 50.991 235.652 51.4093 235.504 52.5074C235.356 53.613 235.014 54.0463 234.4 54.0463H234.144V54.0538ZM233.39 54.7559H234.307C235.317 54.7559 235.978 54.0239 236.188 52.5C236.398 50.9612 235.931 50.2814 234.937 50.2814H234.004L233.39 54.7559ZM231.672 54.1135C231.237 54.1135 230.996 53.628 231.144 52.5299C231.291 51.4318 231.672 50.9238 232.108 50.9238C232.535 50.9238 232.784 51.4318 232.628 52.5299C232.481 53.628 232.108 54.1135 231.672 54.1135ZM231.579 54.8008C232.333 54.8008 233.11 53.994 233.304 52.5149C233.507 51.0358 232.955 50.2216 232.193 50.2216C231.439 50.2216 230.67 51.0358 230.468 52.5149C230.273 53.994 230.825 54.8008 231.579 54.8008ZM228.587 54.1135C228.151 54.1135 227.911 53.628 228.058 52.5299C228.206 51.4318 228.587 50.9238 229.022 50.9238C229.449 50.9238 229.698 51.4318 229.55 52.5299C229.403 53.628 229.022 54.1135 228.587 54.1135ZM228.501 54.8008C229.255 54.8008 230.032 53.994 230.227 52.5149C230.429 51.0358 229.877 50.2216 229.115 50.2216C228.361 50.2216 227.584 51.0283 227.39 52.5074C227.188 53.9865 227.74 54.8008 228.501 54.8008ZM225.641 54.7485L225.89 52.9108H226.9L226.993 52.2236H225.983L226.154 50.991H227.46L227.561 50.2664H225.594L224.988 54.7485H225.641ZM222.983 54.7485L223.224 52.993L224.413 50.5577L224.452 50.2739H223.947L223.053 52.1564H223.045L222.641 50.2739H222.027L221.988 50.5577L222.571 53.0229L222.33 54.7559H222.983V54.7485ZM219.33 54.741L219.594 52.8063H220.682L220.418 54.741H221.079L221.685 50.2664H221.024L220.776 52.1115H219.688L219.936 50.2664H219.276L218.669 54.741H219.33ZM217.496 54.741L218.009 50.9686H218.817L218.91 50.2664H216.633L216.54 50.9686H217.348L216.835 54.741H217.496ZM216.221 54.741L216.322 54.0388H215.102L215.615 50.2664H214.954L214.348 54.741H216.221ZM213.073 51.2674H213.081L213.213 52.9183H212.506L213.073 51.2674ZM211.356 54.7336H211.884L212.273 53.5981H213.268L213.361 54.7336H213.998L214.037 54.4721L213.625 50.2515H212.949L211.395 54.4646L211.356 54.7336ZM209.125 54.7336H211.123L211.216 54.0314H209.871L210.042 52.8063H210.967L211.06 52.1265H210.128L210.283 50.9835H211.581L211.682 50.2664H209.739L209.125 54.7336ZM206.864 54.7336L207.128 52.7988H208.216L207.952 54.741H208.604L209.211 50.259H208.55L208.301 52.1041H207.213L207.462 50.259H206.801L206.195 54.7336H206.864ZM203.638 54.248C203.211 54.248 203.086 53.8521 203.141 53.4039C203.203 52.9407 203.389 52.7017 203.615 52.5224L204.205 53.8969C204.05 54.1135 203.863 54.248 203.638 54.248ZM204.586 54.7336H205.022L205.053 54.5244L204.718 53.755C204.928 53.3441 205.13 52.8212 205.255 52.2908L205.278 52.1265H204.905C204.827 52.5523 204.68 52.9855 204.532 53.3292L204.003 52.1265C203.871 51.8127 203.809 51.611 203.848 51.3421C203.902 50.9761 204.097 50.7445 204.345 50.7445C204.555 50.7445 204.672 50.8566 204.749 50.9985H204.92L204.99 50.4831C204.874 50.3187 204.703 50.2067 204.415 50.2067C203.887 50.2067 203.506 50.6623 203.413 51.3272C203.366 51.6858 203.405 51.9397 203.483 52.1638C203.117 52.3879 202.775 52.8063 202.682 53.4562C202.573 54.2256 202.845 54.7634 203.498 54.7634C203.84 54.7634 204.143 54.5692 204.384 54.2629L204.586 54.7336ZM198.897 54.7261H199.449L199.892 51.4542H199.907L200.708 54.7261H201.306L201.913 50.244H201.361L200.972 53.12H200.964L200.265 50.244H199.519L198.897 54.7261ZM197.374 54.0388C196.993 54.0388 196.799 53.8297 196.915 52.993L197.288 50.244H196.635L196.262 52.9706C196.107 54.121 196.433 54.7709 197.234 54.7784C198.073 54.7784 198.462 54.1285 198.625 52.9781L198.998 50.2515H198.454L198.081 53.0005C197.957 53.8371 197.731 54.0388 197.374 54.0388ZM194.35 54.7186L194.599 52.8809H195.609L195.703 52.2012H194.692L194.863 50.9686H196.169L196.27 50.244H194.304L193.697 54.7186H194.35ZM191.762 55.0174L191.708 55.4283C192.197 55.361 192.469 55.0099 192.563 54.3526C192.617 53.9342 192.469 53.74 192.275 53.74C192.089 53.74 191.918 53.9342 191.879 54.1882C191.855 54.3824 191.887 54.487 191.957 54.5692C192.019 54.6364 192.081 54.6439 192.065 54.7709C192.05 54.8755 191.941 54.9726 191.762 55.0174ZM190.456 54.7709C191.179 54.7709 191.63 54.2779 191.747 53.4113C191.855 52.5821 191.63 52.2759 191.016 52.0294C190.69 51.8949 190.511 51.7829 190.557 51.4243C190.604 51.0583 190.798 50.9089 191.125 50.9089C191.374 50.9089 191.545 51.0358 191.677 51.2076H191.887L191.988 50.4831C191.824 50.3112 191.552 50.1842 191.203 50.1842C190.596 50.1842 190.107 50.6175 189.99 51.4915C189.889 52.246 190.091 52.5896 190.604 52.8286C190.923 52.9855 191.21 53.0304 191.148 53.5084C191.102 53.8521 190.899 54.0612 190.542 54.0612C190.2 54.0612 189.998 53.8595 189.897 53.6504H189.687L189.586 54.4123C189.788 54.629 190.037 54.7709 190.456 54.7709ZM188.203 54.7634C188.933 54.7634 189.376 54.2704 189.493 53.4039C189.609 52.5821 189.376 52.2684 188.77 52.0219C188.443 51.8874 188.265 51.7754 188.311 51.4168C188.358 51.0508 188.552 50.9014 188.879 50.9014C189.135 50.9014 189.298 51.0283 189.431 51.2002H189.64L189.741 50.4756C189.578 50.3038 189.306 50.1768 188.956 50.1768C188.35 50.1768 187.861 50.61 187.744 51.4766C187.643 52.231 187.845 52.5672 188.358 52.8137C188.677 52.9706 188.964 53.0154 188.902 53.4935C188.855 53.8446 188.653 54.0463 188.296 54.0463C187.954 54.0463 187.752 53.8446 187.651 53.6354H187.441L187.332 54.3974C187.534 54.629 187.783 54.7634 188.203 54.7634ZM185 54.7111H186.99L187.083 54.0089H185.739L185.91 52.7838H186.835L186.928 52.0966H186.003L186.158 50.9537H187.456L187.557 50.2291H185.614L185 54.7111ZM182.078 54.7111H182.63L183.073 51.4392H183.088L183.889 54.7111H184.487L185.094 50.2291H184.542L184.153 53.0976H184.138L183.438 50.2291H182.692L182.078 54.7111ZM180.904 54.7111L181.417 50.9387H182.234L182.327 50.2365H180.05L179.956 50.9387H180.765L180.252 54.7111H180.904ZM179.669 50.2291H179.008L178.402 54.7036H179.062L179.669 50.2291ZM176.7 54.7036L176.948 52.866H177.959L178.052 52.1787H177.042L177.213 50.9462H178.518L178.619 50.2216H176.653L176.047 54.6962L176.7 54.7036Z" fill="#00A8D0"/>
<path d="M62.3717 28.1773C61.3924 12.4602 47.8222 0 31.2208 0C13.9821 0 0 13.4313 0 30C0 46.5687 13.9744 60 31.2208 60C42.7625 60 52.8274 53.9791 58.2369 45.0299C56.9311 43.1474 56.1617 40.8914 56.1617 38.4562C56.1617 34.0563 58.6643 30.2166 62.3717 28.1773Z" fill="#E83C39"/>
<path d="M31.2201 42.8561C24.2406 27.6469 19.1188 13.4387 19.1188 13.4387H8.4165C8.4165 13.4387 14.9296 31.6733 27.0309 54.4796H35.4093C47.5105 31.6733 54.0236 13.4387 54.0236 13.4387H43.3213C43.3213 13.4313 38.1995 27.6394 31.2201 42.8561Z" fill="white"/>
<path d="M184.114 46.7706L187.41 17.4653C187.783 14.1486 187.449 13.5734 185.032 13.5734L180.64 13.5659L176.91 46.7631L184.114 46.7706Z" fill="#05425F"/>
<path d="M195.501 46.7928L197.786 26.4517C198.214 22.6569 197.957 21.8949 195.587 21.8949L191.094 21.8875L188.296 46.7854L195.501 46.7928Z" fill="#05425F"/>
<path d="M194.965 19.9451C197.141 19.9526 199.045 18.339 199.27 16.2997C199.496 14.2604 197.957 12.5945 195.789 12.5945C193.62 12.587 191.654 14.2454 191.428 16.2847C191.195 18.3241 192.796 19.9377 194.965 19.9451Z" fill="#E83C39"/>
<path d="M200.693 26.5487L203.755 26.5562L201.478 46.8077L208.683 46.8226L210.96 26.5712L215.895 26.5786L216.416 21.9322L211.481 21.9247L211.667 20.2664C211.877 18.369 213.214 17.9432 215.235 17.9506H217.209L217.675 13.8271C216.727 13.4462 215.53 13.1548 213.455 13.1548C208.372 13.1473 205.022 15.2763 204.493 20.0124L204.284 21.9098L201.221 21.9023L200.693 26.5487Z" fill="#05425F"/>
<path d="M228.214 26.6311C223.636 26.6236 222.75 31.3597 222.75 31.3597L232.613 31.3821C232.613 31.3821 232.792 26.6386 228.214 26.6311ZM238.077 36.1331L222.222 36.1032C222.222 36.1032 222.004 41.1829 229.053 41.1979C232.574 41.2053 236.211 40.1968 236.211 40.1968L236.305 45.6127C236.305 45.6127 232.628 46.9573 227.693 46.9498C220.644 46.9349 214.682 43.536 215.747 34.0564C216.587 26.6087 222.051 21.8801 229.1 21.8951C239.67 21.9175 239.235 32.0768 238.077 36.1331Z" fill="#05425F"/>
<path d="M157.798 28.4387C151.744 28.4387 151.285 34.6986 151.285 34.6986H164.311C164.311 34.6986 163.845 28.4387 157.798 28.4387ZM172.223 40.9586H151.285C151.285 40.9586 151.752 47.6668 161.055 47.6668C165.71 47.6668 170.366 46.3221 170.366 46.3221L171.299 53.4785C171.299 53.4785 166.643 55.2713 160.13 55.2713C150.819 55.2713 142.448 50.7967 142.448 38.2768C142.448 28.4387 148.961 22.1787 158.272 22.1787C172.223 22.1787 173.156 35.5951 172.223 40.9586Z" fill="#05425F"/>
<path d="M125.536 43.4463C120.88 32.7117 118.556 22.5972 118.556 22.5972H109.253C109.253 22.5972 113.908 39.8606 121.821 54.1734H129.266C137.178 39.8681 141.834 22.6046 141.834 22.6046H132.531C132.523 22.5972 130.191 32.7117 125.536 43.4463Z" fill="#05425F"/>
<path d="M104.085 30.3286L105.484 23.1722C105.484 23.1722 94.7035 20.0273 85.9365 25.854V54.4795H95.2476V31.225C98.9704 28.5357 104.085 30.3286 104.085 30.3286Z" fill="#05425F"/>
<path d="M66.5297 28.4387C60.4829 28.4387 60.0166 34.6986 60.0166 34.6986H73.0505C73.0428 34.6986 72.5842 28.4387 66.5297 28.4387ZM80.9548 40.9586H60.0088C60.0088 40.9586 60.4752 47.6668 69.7785 47.6668C74.434 47.6668 79.0895 46.3221 79.0895 46.3221L80.0222 53.4785C80.0222 53.4785 75.3666 55.2713 68.8536 55.2713C59.5425 55.2713 51.1719 50.7967 51.1719 38.2768C51.1719 28.4387 57.685 22.1787 66.996 22.1787C80.9548 22.1787 81.8875 35.5951 80.9548 40.9586Z" fill="#05425F"/>
<path d="M273.479 12.9868C277.661 12.9868 280 15.7234 280 20.6951C280 26.8991 277.016 32.9382 271.062 32.9382C266.896 32.9382 264.51 30.3019 264.51 25.2586C264.518 19.0618 267.456 12.9868 273.479 12.9868ZM269.407 25.5881C269.407 27.6083 270.067 28.819 271.342 28.819C274.148 28.819 275.119 23.747 275.119 20.4301C275.119 18.2881 274.49 17.0989 273.184 17.0989C270.363 17.0989 269.407 22.2712 269.407 25.5881Z" fill="#00B0D8"/>
<path d="M264.067 27.723C264.067 28.8191 263.173 29.6358 261.96 29.6358C260.802 29.6358 259.947 28.8406 259.947 27.7875C259.947 26.6986 260.841 25.8962 262.046 25.8962C263.212 25.8962 264.067 26.6771 264.067 27.723Z" fill="#00B0D8"/>
</svg>
