<svg width="77" height="78" viewBox="0 0 77 78" fill="none" xmlns="http://www.w3.org/2000/svg">
<ellipse cx="38.5" cy="39" rx="38.5" ry="39" fill="#479FC8"/>
<path d="M38 23.75C34.7861 23.75 31.6443 24.703 28.972 26.4886C26.2997 28.2742 24.2169 30.8121 22.987 33.7814C21.757 36.7507 21.4352 40.018 22.0622 43.1702C22.6893 46.3224 24.2369 49.2179 26.5095 51.4905C28.7821 53.7631 31.6776 55.3108 34.8298 55.9378C37.982 56.5648 41.2493 56.243 44.2186 55.013C47.1879 53.7831 49.7258 51.7003 51.5114 49.028C53.297 46.3557 54.25 43.2139 54.25 40C54.245 35.6918 52.5314 31.5614 49.485 28.515C46.4386 25.4686 42.3082 23.755 38 23.75V23.75ZM43.625 35C43.9958 35 44.3584 35.11 44.6667 35.316C44.975 35.522 45.2154 35.8149 45.3573 36.1575C45.4992 36.5001 45.5363 36.8771 45.464 37.2408C45.3916 37.6045 45.2131 37.9386 44.9508 38.2008C44.6886 38.463 44.3545 38.6416 43.9908 38.714C43.6271 38.7863 43.2501 38.7492 42.9075 38.6073C42.5649 38.4654 42.272 38.225 42.066 37.9167C41.86 37.6084 41.75 37.2458 41.75 36.875C41.75 36.3777 41.9476 35.9008 42.2992 35.5492C42.6508 35.1976 43.1277 35 43.625 35V35ZM32.375 35C32.7458 35 33.1084 35.11 33.4167 35.316C33.725 35.522 33.9654 35.8149 34.1073 36.1575C34.2492 36.5001 34.2863 36.8771 34.214 37.2408C34.1416 37.6045 33.9631 37.9386 33.7008 38.2008C33.4386 38.463 33.1045 38.6416 32.7408 38.714C32.3771 38.7863 32.0001 38.7492 31.6575 38.6073C31.3149 38.4654 31.022 38.225 30.816 37.9167C30.61 37.6084 30.5 37.2458 30.5 36.875C30.5 36.3777 30.6976 35.9008 31.0492 35.5492C31.4008 35.1976 31.8777 35 32.375 35V35ZM45.5781 44.3762C44.6244 46.0242 43.1609 47.3176 41.4082 48.0615C39.4422 48.8899 37.2415 48.9726 35.2189 48.2942C33.1963 47.6157 31.4906 46.2226 30.4219 44.3762C30.3396 44.2342 30.2862 44.0774 30.2646 43.9147C30.2429 43.752 30.2536 43.5866 30.2959 43.428C30.3381 43.2695 30.4112 43.1208 30.511 42.9904C30.6107 42.8601 30.7352 42.7507 30.8772 42.6685C31.0192 42.5862 31.1761 42.5328 31.3388 42.5111C31.5015 42.4895 31.6668 42.5001 31.8254 42.5424C31.984 42.5847 32.1327 42.6578 32.263 42.7576C32.3933 42.8573 32.5027 42.9817 32.585 43.1238C33.268 44.302 34.3149 45.2268 35.5684 45.7593C36.3392 46.0808 37.1661 46.2463 38.0012 46.2463C38.8364 46.2463 39.6633 46.0808 40.4341 45.7593C41.1759 45.4446 41.8499 44.9895 42.419 44.4189C42.8051 44.0317 43.1399 43.5964 43.415 43.1238C43.4973 42.9817 43.6067 42.8573 43.737 42.7576C43.8673 42.6578 44.016 42.5847 44.1746 42.5424C44.3332 42.5001 44.4986 42.4895 44.6613 42.5111C44.8239 42.5328 44.9808 42.5862 45.1228 42.6685C45.2648 42.7507 45.3893 42.8601 45.489 42.9904C45.5888 43.1208 45.6619 43.2695 45.7042 43.428C45.7464 43.5866 45.7571 43.752 45.7354 43.9147C45.7138 44.0774 45.6604 44.2342 45.5781 44.3762Z" fill="white"/>
</svg>
