<svg width="77" height="78" viewBox="0 0 77 78" fill="none" xmlns="http://www.w3.org/2000/svg">
<ellipse cx="38.5" cy="39" rx="38.5" ry="39" fill="#479FC8"/>
<g clip-path="url(#clip0)">
<path d="M57.0117 50.3093L42.1112 35.4088L24.7024 18H23.3419L23.0641 18.7059C22.3309 20.5691 22.0177 22.4747 22.1583 24.2166C22.3186 26.2021 23.0729 27.921 24.3397 29.1879L37.9299 42.7781L39.7225 40.9855L52.2866 55.0346C53.5364 56.2845 55.6877 56.3587 57.0117 55.0346C58.3146 53.7318 58.3146 51.6121 57.0117 50.3093Z" fill="white"/>
<path d="M31.632 39.6306L20.9882 50.2744C19.6856 51.5771 19.6856 53.6969 20.9882 54.9995C22.2258 56.2371 24.3666 56.3463 25.7134 54.9995L36.3572 44.3557L31.632 39.6306Z" fill="white"/>
<path d="M56.3861 24.3271L50.3483 30.3648L48.7731 28.7898L54.8109 22.752L53.2358 21.1769L47.1982 27.2146L45.6231 25.6395L51.6609 19.6019L50.0859 18.0269L42.2105 25.9022C41.2471 26.8656 40.6718 28.1449 40.5905 29.5044C40.5699 29.8489 40.4918 30.1877 40.3623 30.5099L45.4781 35.6258C45.8004 35.4961 46.1393 35.4181 46.4836 35.3975C47.8432 35.3164 49.1224 34.741 50.0859 33.7776L57.9612 25.9023L56.3861 24.3271Z" fill="white"/>
</g>
<defs>
<clipPath id="clip0">
<rect width="38" height="38" fill="white" transform="translate(20 18)"/>
</clipPath>
</defs>
</svg>
