<svg width="426" height="135" viewBox="0 0 426 135" fill="none" xmlns="http://www.w3.org/2000/svg">
<path d="M1.38477 133H37.1562L-9.25 5.20703H-42.0332L-88.3516 133H-52.4922L-46.0762 112.434H-5.03125L1.38477 133ZM-37.1992 83.6934L-25.7734 46.9551H-25.4219L-13.9961 83.6934H-37.1992ZM74.1582 134.846C99.1191 134.846 111.424 122.893 111.424 105.754C111.424 88.5273 101.668 82.7266 81.6289 76.3105C72.8398 73.498 70.7305 71.916 70.7305 70.1582C70.7305 67.6094 73.4551 66.5547 76.1797 66.5547C81.8047 66.5547 89.0117 69.8066 94.7246 75.6074L109.578 54.25C99.1191 46.9551 89.5391 43 75.125 43C56.7559 43 41.375 53.2832 41.375 72.707C41.375 89.4941 54.2949 97.1406 69.2363 101.359C80.1348 104.523 81.2773 106.018 81.2773 108.303C81.2773 110.5 79.168 111.906 74.7734 111.906C68.0938 111.906 60.3594 108.566 52.7129 101.887L38.123 121.75C48.3184 130.803 60.5352 134.934 74.1582 134.934V134.846ZM180.242 44.9336V53.6348H179.979C173.914 46.6035 165.828 43 157.127 43C135.066 43 118.104 61.8965 118.104 88.9668C118.104 116.125 134.891 134.846 159.061 134.846C168.816 134.846 176.463 131.506 181.736 124.738H182V133H212.498V44.8457L180.242 44.9336ZM166.18 106.721C157.127 106.721 150.535 99.7773 150.535 88.9668C150.535 78.5078 157.127 71.3008 166.18 71.3008C174.793 71.3008 181.648 78.5078 181.648 88.9668C181.648 99.7773 174.793 106.721 166.18 106.721ZM284.129 43C274.988 43 266.727 46.6035 260.486 53.7227H260.311V0.548828H228.055V133H258.553V124.826H258.904C264.354 131.594 272.176 134.846 282.283 134.846C306.453 134.846 323.24 116.213 323.24 88.9668C323.24 61.8965 306.277 43.0879 284.217 43.0879L284.129 43ZM275.164 106.809C265.76 106.809 258.904 99.8652 258.904 89.0547C258.904 78.5957 265.76 71.3887 275.164 71.3887C284.217 71.3887 290.809 78.5957 290.809 89.0547C290.809 99.8652 284.217 106.809 275.164 106.809ZM393.289 44.9336V53.6348H393.025C386.961 46.6035 378.875 43 370.174 43C348.113 43 331.15 61.8965 331.15 88.9668C331.15 116.125 347.938 134.846 372.107 134.846C381.863 134.846 389.51 131.506 394.783 124.738H395.047V133H425.545V44.8457L393.289 44.9336ZM379.227 106.721C370.174 106.721 363.582 99.7773 363.582 88.9668C363.582 78.5078 370.174 71.3008 379.227 71.3008C387.84 71.3008 394.695 78.5078 394.695 88.9668C394.695 99.7773 387.84 106.721 379.227 106.721Z" fill="#EBF8FE"/>
</svg>
