<svg width="40" height="40" viewBox="0 0 40 40" fill="none" xmlns="http://www.w3.org/2000/svg">
<path d="M37.4999 19.8223L21.1793 3.50164C20.8886 3.21013 20.5302 2.99512 20.1362 2.87581C19.7421 2.7565 19.3247 2.7366 18.9211 2.81789L6.31873 5.33834C6.07678 5.38679 5.85457 5.50575 5.68009 5.68023C5.5056 5.85471 5.38665 6.07692 5.33819 6.31887L2.81775 18.9213C2.73661 19.3249 2.75658 19.7422 2.87588 20.1362C2.99518 20.5303 3.21011 20.8886 3.5015 21.1794L19.822 37.4999C20.0541 37.7321 20.3297 37.9163 20.6331 38.0419C20.9364 38.1676 21.2615 38.2323 21.5898 38.2323C21.9182 38.2323 22.2433 38.1677 22.5466 38.042C22.85 37.9164 23.1256 37.7322 23.3578 37.5001L37.4998 23.3581C37.7319 23.1259 37.9161 22.8503 38.0418 22.547C38.1675 22.2437 38.2322 21.9185 38.2322 21.5902C38.2322 21.2619 38.1675 20.9368 38.0419 20.6334C37.9163 20.3301 37.7321 20.0545 37.4999 19.8223ZM13.124 15.0001C12.7532 15.0001 12.3906 14.8901 12.0823 14.6841C11.774 14.478 11.5336 14.1852 11.3917 13.8426C11.2498 13.5 11.2127 13.123 11.285 12.7593C11.3574 12.3955 11.5359 12.0615 11.7982 11.7992C12.0604 11.537 12.3945 11.3584 12.7582 11.2861C13.1219 11.2137 13.4989 11.2509 13.8415 11.3928C14.1841 11.5347 14.477 11.775 14.683 12.0834C14.889 12.3917 14.999 12.7542 14.999 13.1251C14.999 13.6223 14.8015 14.0992 14.4498 14.4509C14.0982 14.8025 13.6213 15.0001 13.124 15.0001Z" fill="white"/>
</svg>
