<svg width="38" height="38" viewBox="0 0 38 38" fill="none" xmlns="http://www.w3.org/2000/svg">
<g clip-path="url(#clip0)">
<path d="M37.0115 32.3093L22.111 17.4088L4.7022 0H3.3417L3.0639 0.705895C2.33069 2.56908 2.01741 4.47472 2.15805 6.21656C2.31837 8.20206 3.07265 9.92104 4.33949 11.1879L17.9297 24.7781L19.7222 22.9855L32.2863 37.0346C33.5362 38.2845 35.6874 38.3587 37.0115 37.0346C38.3143 35.7318 38.3143 33.6121 37.0115 32.3093Z" fill="white"/>
<path d="M11.6322 21.6306L0.988368 32.2744C-0.314319 33.5771 -0.314319 35.6969 0.988368 36.9995C2.22589 38.2371 4.36673 38.3463 5.7135 36.9995L16.3574 26.3557L11.6322 21.6306Z" fill="white"/>
<path d="M36.3859 6.32714L30.3482 12.3648L28.773 10.7898L34.8108 4.75199L33.2357 3.17692L27.198 9.21462L25.623 7.63955L31.6607 1.60185L30.0857 0.0268555L22.2104 7.90221C21.2469 8.86564 20.6717 10.1449 20.5903 11.5044C20.5698 11.8489 20.4917 12.1877 20.3622 12.5099L25.478 17.6258C25.8003 17.4961 26.1391 17.4181 26.4835 17.3975C27.8431 17.3164 29.1223 16.741 30.0857 15.7776L37.9611 7.90228L36.3859 6.32714Z" fill="white"/>
</g>
<defs>
<clipPath id="clip0">
<rect width="38" height="38" fill="white"/>
</clipPath>
</defs>
</svg>
