<svg width="40" height="40" viewBox="0 0 40 40" fill="none" xmlns="http://www.w3.org/2000/svg">
<g clip-path="url(#clip0)">
<path d="M32.3948 0.00889758C25.982 0.574063 21.2499 3.77494 18.4913 8.40232C16.6426 10.7199 12.9496 17.7954 11.6065 21.4994C9.17127 26.1054 7.0477 31.5857 5.38583 36.5261C4.36995 39.5472 8.93137 41.5182 9.95306 38.4835C11.1959 34.7873 12.6974 30.791 14.3942 27.0825C16.0781 30.8512 17.7891 34.6075 19.6262 38.3043C21.0501 41.1741 25.3347 38.6574 23.916 35.7973C22.0246 31.9918 20.2677 28.1256 18.5366 24.2463C18.5586 24.1713 18.5864 24.0983 18.6097 24.0239C18.8981 24.106 19.2162 24.1312 19.5667 24.0646C22.2153 23.5674 24.864 23.0714 27.5146 22.5741C28.6468 22.3614 29.0807 21.1224 28.9023 20.1305C28.3669 17.1579 26.6733 15.0899 24.5652 13.1332C24.2523 12.0688 23.2086 11.1273 22.0504 10.1916C24.3984 6.39578 28.2317 4.33558 33.2212 3.89586C35.7677 3.67277 34.9193 -0.212901 32.3948 0.00889758ZM22.7443 16.905C23.3993 17.5866 23.9568 18.3037 24.3777 19.134C23.0961 19.3745 21.8138 19.6144 20.5321 19.855C21.1788 18.8139 21.9231 17.831 22.7443 16.905Z" fill="white"/>
<path d="M28.2277 13.5213C30.1116 13.5213 31.6387 11.9941 31.6387 10.1103C31.6387 8.22639 30.1116 6.69922 28.2277 6.69922C26.3438 6.69922 24.8167 8.22639 24.8167 10.1103C24.8167 11.9941 26.3438 13.5213 28.2277 13.5213Z" fill="white"/>
</g>
<defs>
<clipPath id="clip0">
<rect width="40" height="40" fill="white"/>
</clipPath>
</defs>
</svg>
