<svg width="40" height="40" viewBox="0 0 40 40" fill="none" xmlns="http://www.w3.org/2000/svg">
<path d="M32.5 5H7.5C6.83719 5.00076 6.20175 5.26439 5.73307 5.73307C5.26439 6.20175 5.00076 6.83719 5 7.5V32.5C5.00076 33.1628 5.26439 33.7983 5.73307 34.2669C6.20175 34.7356 6.83719 34.9992 7.5 35H32.5C33.1628 34.9992 33.7983 34.7356 34.2669 34.2669C34.7356 33.7983 34.9992 33.1628 35 32.5V7.5C34.9992 6.83719 34.7356 6.20175 34.2669 5.73307C33.7983 5.26439 33.1628 5.00076 32.5 5ZM12.5 32.5H7.5V7.5H12.5V32.5ZM27.5 23.75H17.5C17.1685 23.75 16.8505 23.6183 16.6161 23.3839C16.3817 23.1495 16.25 22.8315 16.25 22.5C16.25 22.1685 16.3817 21.8505 16.6161 21.6161C16.8505 21.3817 17.1685 21.25 17.5 21.25H27.5C27.8315 21.25 28.1495 21.3817 28.3839 21.6161C28.6183 21.8505 28.75 22.1685 28.75 22.5C28.75 22.8315 28.6183 23.1495 28.3839 23.3839C28.1495 23.6183 27.8315 23.75 27.5 23.75ZM27.5 18.75H17.5C17.1685 18.75 16.8505 18.6183 16.6161 18.3839C16.3817 18.1495 16.25 17.8315 16.25 17.5C16.25 17.1685 16.3817 16.8505 16.6161 16.6161C16.8505 16.3817 17.1685 16.25 17.5 16.25H27.5C27.8315 16.25 28.1495 16.3817 28.3839 16.6161C28.6183 16.8505 28.75 17.1685 28.75 17.5C28.75 17.8315 28.6183 18.1495 28.3839 18.3839C28.1495 18.6183 27.8315 18.75 27.5 18.75Z" fill="white"/>
</svg>
