<svg width="40" height="40" viewBox="0 0 40 40" fill="none" xmlns="http://www.w3.org/2000/svg">
<path d="M20 3.75C16.7861 3.75 13.6443 4.70305 10.972 6.48862C8.29969 8.27419 6.21689 10.8121 4.98696 13.7814C3.75704 16.7507 3.43524 20.018 4.06225 23.1702C4.68926 26.3224 6.23692 29.2179 8.50952 31.4905C10.7821 33.7631 13.6776 35.3107 16.8298 35.9378C19.982 36.5648 23.2493 36.243 26.2186 35.013C29.1879 33.7831 31.7258 31.7003 33.5114 29.028C35.297 26.3557 36.25 23.2139 36.25 20C36.245 15.6918 34.5314 11.5614 31.485 8.51501C28.4386 5.46863 24.3082 3.75498 20 3.75ZM25.625 15C25.9958 15 26.3584 15.11 26.6667 15.316C26.975 15.522 27.2154 15.8149 27.3573 16.1575C27.4992 16.5001 27.5363 16.8771 27.464 17.2408C27.3916 17.6045 27.2131 17.9386 26.9508 18.2008C26.6886 18.463 26.3545 18.6416 25.9908 18.714C25.6271 18.7863 25.2501 18.7492 24.9075 18.6073C24.5649 18.4654 24.272 18.225 24.066 17.9167C23.86 17.6084 23.75 17.2458 23.75 16.875C23.75 16.3777 23.9476 15.9008 24.2992 15.5492C24.6508 15.1976 25.1277 15 25.625 15ZM14.375 15C14.7458 15 15.1084 15.11 15.4167 15.316C15.725 15.522 15.9654 15.8149 16.1073 16.1575C16.2492 16.5001 16.2863 16.8771 16.214 17.2408C16.1416 17.6045 15.9631 17.9386 15.7008 18.2008C15.4386 18.463 15.1045 18.6416 14.7408 18.714C14.3771 18.7863 14.0001 18.7492 13.6575 18.6073C13.3149 18.4654 13.022 18.225 12.816 17.9167C12.61 17.6084 12.5 17.2458 12.5 16.875C12.5 16.3777 12.6976 15.9008 13.0492 15.5492C13.4008 15.1976 13.8777 15 14.375 15ZM27.5781 24.3762C26.6244 26.0242 25.1609 27.3176 23.4082 28.0615C21.4422 28.8899 19.2415 28.9726 17.2189 28.2942C15.1963 27.6157 13.4906 26.2226 12.4219 24.3762C12.3396 24.2342 12.2862 24.0774 12.2646 23.9147C12.2429 23.752 12.2536 23.5866 12.2959 23.428C12.3381 23.2695 12.4112 23.1208 12.511 22.9904C12.6107 22.8601 12.7352 22.7507 12.8772 22.6685C13.0192 22.5862 13.1761 22.5328 13.3388 22.5111C13.5015 22.4895 13.6668 22.5001 13.8254 22.5424C13.984 22.5847 14.1327 22.6578 14.263 22.7576C14.3933 22.8573 14.5027 22.9817 14.585 23.1238C15.268 24.302 16.3149 25.2268 17.5684 25.7593C18.3392 26.0808 19.1661 26.2463 20.0012 26.2463C20.8364 26.2463 21.6633 26.0808 22.4341 25.7593C23.1759 25.4446 23.8499 24.9895 24.419 24.4189C24.8051 24.0317 25.1399 23.5964 25.415 23.1238C25.4973 22.9817 25.6067 22.8573 25.737 22.7576C25.8673 22.6578 26.016 22.5847 26.1746 22.5424C26.3332 22.5001 26.4986 22.4895 26.6613 22.5111C26.8239 22.5328 26.9808 22.5862 27.1228 22.6685C27.2648 22.7507 27.3893 22.8601 27.489 22.9904C27.5888 23.1208 27.6619 23.2695 27.7042 23.428C27.7464 23.5866 27.7571 23.752 27.7354 23.9147C27.7138 24.0774 27.6604 24.2342 27.5781 24.3762Z" fill="white"/>
</svg>
