<svg width="1230" height="297" viewBox="0 0 1230 297" fill="none" xmlns="http://www.w3.org/2000/svg">
<g filter="url(#filter0_d_4979_5526)">
<path d="M112.684 199H146.609V101.705H178.953V71.207H80.0762V101.705H112.684V199ZM248.387 109C238.455 109 229.314 112.955 222.635 120.689H222.371V66.5488H190.203V199H222.371V154.791C222.371 142.838 227.557 137.564 235.203 137.564C244.08 137.564 247.596 140.992 247.596 153.473V199H279.764V145.738C279.764 117.174 266.404 109 248.475 109H248.387ZM381.014 154.352C381.014 127.809 362.117 109 336.629 109C310.086 109 290.926 128.336 290.926 154.967C290.926 182.125 310.877 200.846 337.156 200.846C355.965 200.846 370.115 193.199 377.586 183.971L360.975 165.689C354.91 171.93 348.67 175.533 340.584 175.533C331.18 175.533 323.797 171.314 322.303 162.789H380.135C380.662 160.68 381.014 156.461 381.014 154.352ZM336.453 133.609C343.396 133.609 348.23 138.004 349.812 145.387H322.391C323.797 137.74 329.422 133.609 336.453 133.609Z" fill="white"/>
</g>
<path d="M487.484 71.207L462.875 150.309H462.436L438.266 71.207H401L447.758 199H477.816L524.311 71.207H487.484ZM605.346 154.352C605.346 127.809 586.449 109 560.961 109C534.418 109 515.258 128.336 515.258 154.967C515.258 182.125 535.209 200.846 561.488 200.846C580.297 200.846 594.447 193.199 601.918 183.971L585.307 165.689C579.242 171.93 573.002 175.533 564.916 175.533C555.512 175.533 548.129 171.314 546.635 162.789H604.467C604.994 160.68 605.346 156.461 605.346 154.352ZM560.785 133.609C567.729 133.609 572.562 138.004 574.145 145.387H546.723C548.129 137.74 553.754 133.609 560.785 133.609ZM674.164 109C664.672 109 655.883 113.746 649.643 122.887H649.379V110.934H617.211V199H649.379V160.592C649.379 150.396 655.268 143.277 667.66 143.277C668.979 143.277 671.791 143.277 674.428 143.365V109H674.164ZM741.4 110.934L727.074 160.943H726.723L711.957 110.934H678.646L712.396 199H741.312L774.975 110.934H741.4ZM864.096 154.352C864.096 127.809 845.199 109 819.711 109C793.168 109 774.008 128.336 774.008 154.967C774.008 182.125 793.959 200.846 820.238 200.846C839.047 200.846 853.197 193.199 860.668 183.971L844.057 165.689C837.992 171.93 831.752 175.533 823.666 175.533C814.262 175.533 806.879 171.314 805.385 162.789H863.217C863.744 160.68 864.096 156.461 864.096 154.352ZM819.535 133.609C826.479 133.609 831.312 138.004 832.895 145.387H805.473C806.879 137.74 812.504 133.609 819.535 133.609Z" fill="#FBE9E9"/>
<g filter="url(#filter1_d_4979_5526)">
<path d="M894.404 199H979.658V168.678H928.945V71.207H894.492L894.404 199ZM1007.43 100.826C1018.24 100.826 1025.89 93.5312 1025.89 83.5117C1025.89 73.7559 1018.24 66.373 1007.43 66.373C996.621 66.373 988.975 73.9316 988.975 83.5117C988.975 93.3555 996.621 100.914 1007.43 100.914V100.826ZM991.348 199.088H1023.52V110.934H991.348V199.088ZM1043.2 199H1075.46V136.422H1089.87V110.934H1075.46V98.8047C1075.46 92.7402 1078.8 91.2461 1083.11 91.2461C1085.21 91.2461 1089.61 92.125 1092.42 93.6191L1097.96 71.8223C1095.67 69.8887 1086.01 64.6152 1073.44 64.6152C1055.6 64.6152 1043.2 75.4258 1043.2 98.2773V110.846H1035.21V136.334H1043.2V199ZM1183.56 154.352C1183.56 127.809 1164.67 109 1139.18 109C1112.64 109 1093.48 128.336 1093.48 154.967C1093.48 182.125 1113.43 200.846 1139.71 200.846C1158.52 200.846 1172.67 193.199 1180.14 183.971L1163.53 165.689C1157.46 171.93 1151.22 175.533 1143.13 175.533C1133.73 175.533 1126.35 171.314 1124.85 162.789H1182.69C1183.21 160.68 1183.56 156.461 1183.56 154.352ZM1139 133.609C1145.95 133.609 1150.78 138.004 1152.36 145.387H1124.94C1126.35 137.74 1131.97 133.609 1139 133.609Z" fill="white"/>
</g>
<defs>
<filter id="filter0_d_4979_5526" x="0.0761719" y="2.54883" width="460.938" height="294.297" filterUnits="userSpaceOnUse" color-interpolation-filters="sRGB">
<feFlood flood-opacity="0" result="BackgroundImageFix"/>
<feColorMatrix in="SourceAlpha" type="matrix" values="0 0 0 0 0 0 0 0 0 0 0 0 0 0 0 0 0 0 127 0" result="hardAlpha"/>
<feOffset dy="16"/>
<feGaussianBlur stdDeviation="40"/>
<feColorMatrix type="matrix" values="0 0 0 0 0 0 0 0 0 0 0 0 0 0 0 0 0 0 0.06 0"/>
<feBlend mode="normal" in2="BackgroundImageFix" result="effect1_dropShadow_4979_5526"/>
<feBlend mode="normal" in="SourceGraphic" in2="effect1_dropShadow_4979_5526" result="shape"/>
</filter>
<filter id="filter1_d_4979_5526" x="814.404" y="0.615234" width="449.16" height="296.23" filterUnits="userSpaceOnUse" color-interpolation-filters="sRGB">
<feFlood flood-opacity="0" result="BackgroundImageFix"/>
<feColorMatrix in="SourceAlpha" type="matrix" values="0 0 0 0 0 0 0 0 0 0 0 0 0 0 0 0 0 0 127 0" result="hardAlpha"/>
<feOffset dy="16"/>
<feGaussianBlur stdDeviation="40"/>
<feColorMatrix type="matrix" values="0 0 0 0 0 0 0 0 0 0 0 0 0 0 0 0 0 0 0.06 0"/>
<feBlend mode="normal" in2="BackgroundImageFix" result="effect1_dropShadow_4979_5526"/>
<feBlend mode="normal" in="SourceGraphic" in2="effect1_dropShadow_4979_5526" result="shape"/>
</filter>
</defs>
</svg>
