<svg width="164" height="44" viewBox="0 0 164 44" fill="none" xmlns="http://www.w3.org/2000/svg">
<path d="M160.123 39.1304L160.409 36.954H160.586C161.007 36.954 161.161 37.2487 161.057 38.0377C160.953 38.8267 160.721 39.135 160.3 39.135H160.123V39.1304ZM159.607 39.6292H160.232C160.921 39.6292 161.374 39.1078 161.514 38.0241C161.659 36.9314 161.338 36.4416 160.658 36.4416H160.019L159.607 39.6292ZM158.433 39.1758C158.134 39.1758 157.971 38.8267 158.071 38.0513C158.171 37.2669 158.429 36.9087 158.728 36.9087C159.022 36.9087 159.19 37.2714 159.086 38.0513C158.986 38.8312 158.728 39.1758 158.433 39.1758ZM158.37 39.6655C158.886 39.6655 159.417 39.0896 159.553 38.0377C159.688 36.9858 159.312 36.4054 158.796 36.4054C158.279 36.4054 157.749 36.9812 157.613 38.0377C157.473 39.0896 157.853 39.6655 158.37 39.6655ZM156.327 39.1713C156.032 39.1713 155.864 38.8266 155.964 38.0468C156.068 37.2623 156.327 36.9041 156.621 36.9041C156.916 36.9041 157.083 37.2669 156.979 38.0468C156.879 38.8266 156.621 39.1758 156.327 39.1713ZM156.263 39.6655C156.78 39.6655 157.31 39.0896 157.446 38.0377C157.582 36.9858 157.206 36.4054 156.689 36.4054C156.173 36.4054 155.642 36.9812 155.507 38.0377C155.366 39.0851 155.747 39.6655 156.263 39.6655ZM154.306 39.6247L154.478 38.3188H155.167L155.23 37.8337H154.541L154.659 36.954H155.552L155.62 36.4416L154.274 36.4371L153.857 39.6247H154.306ZM152.494 39.6247L152.657 38.3732L153.468 36.6366L153.495 36.4371H153.15L152.539 37.7747H152.534L152.253 36.4371H151.832L151.809 36.6366L152.208 38.3914L152.045 39.6247H152.494ZM149.993 39.6201L150.174 38.2417H150.917L150.736 39.6201H151.184L151.601 36.4326H151.152L150.98 37.743H150.237L150.409 36.4326H149.961L149.544 39.6201H149.993ZM148.737 39.6201L149.086 36.9313H149.639L149.703 36.428H148.148L148.081 36.9313H148.633L148.284 39.6201H148.737ZM147.868 39.6201L147.936 39.1214H147.102L147.451 36.4326H146.998L146.581 39.6201H147.868ZM145.715 37.1445H145.72L145.806 38.3188H145.321L145.715 37.1445ZM144.537 39.6156H144.9L145.167 38.804H145.851L145.915 39.6156H146.35L146.377 39.4297L146.096 36.428H145.634L144.574 39.4297L144.537 39.6156ZM143.015 39.6156H144.379L144.442 39.1123H143.523L143.64 38.2372H144.275L144.338 37.752H143.704L143.808 36.9404H144.696L144.764 36.428H143.432L143.015 39.6156ZM141.466 39.6156L141.647 38.2372H142.39L142.213 39.6156H142.662L143.078 36.428H142.63L142.458 37.7384H141.715L141.887 36.428H141.438L141.021 39.6156H141.466ZM139.259 39.271C138.969 39.271 138.878 38.9899 138.924 38.6679C138.969 38.3415 139.096 38.1692 139.25 38.0377L139.658 39.0171C139.54 39.1758 139.418 39.271 139.259 39.271ZM139.911 39.6111H140.206L140.224 39.4614L139.993 38.9128C140.138 38.6226 140.274 38.2463 140.36 37.8699L140.374 37.752H140.12C140.065 38.0558 139.966 38.3642 139.862 38.609L139.504 37.752C139.409 37.5299 139.372 37.3893 139.395 37.1943C139.431 36.9359 139.567 36.7681 139.735 36.7681C139.88 36.7681 139.957 36.8497 140.011 36.9495H140.129L140.174 36.5822C140.093 36.4643 139.979 36.3872 139.78 36.3872C139.418 36.3872 139.155 36.7137 139.096 37.1853C139.064 37.4392 139.091 37.6206 139.141 37.7838C138.892 37.9425 138.656 38.2372 138.598 38.7042C138.525 39.2529 138.711 39.6337 139.155 39.6337C139.39 39.6337 139.594 39.4977 139.762 39.2801L139.911 39.6111ZM136.019 39.6111H136.396L136.699 37.2805H136.708L137.256 39.6111H137.664L138.081 36.4235H137.7L137.433 38.4684H137.424L136.944 36.419H136.432L136.019 39.6111ZM134.977 39.1214C134.719 39.1214 134.588 38.9763 134.665 38.3778L134.919 36.419H134.47L134.216 38.3596C134.107 39.1803 134.334 39.6428 134.882 39.6428C135.453 39.6428 135.725 39.1803 135.834 38.3596L136.087 36.419H135.711L135.458 38.3778C135.376 38.9763 135.222 39.1214 134.977 39.1214ZM132.907 39.6065L133.079 38.3007H133.768L133.831 37.8155H133.142L133.256 36.9359H134.153L134.221 36.419H132.875L132.458 39.6065H132.907ZM131.14 39.8151L131.104 40.1053C131.439 40.0554 131.625 39.806 131.688 39.339C131.724 39.0443 131.625 38.8992 131.493 38.8992C131.362 38.8992 131.249 39.0352 131.221 39.2166C131.203 39.3526 131.226 39.4297 131.271 39.4886C131.316 39.5385 131.357 39.543 131.344 39.6292C131.335 39.7153 131.262 39.7879 131.14 39.8151ZM130.247 39.6428C130.746 39.6428 131.049 39.2937 131.131 38.6725C131.208 38.083 131.049 37.8654 130.632 37.6886C130.406 37.5933 130.283 37.5117 130.32 37.2578C130.351 36.9994 130.487 36.8905 130.705 36.8905C130.877 36.8905 130.99 36.9812 131.081 37.1037H131.221L131.289 36.5913C131.176 36.4689 130.99 36.3827 130.755 36.3827C130.342 36.3827 130.007 36.691 129.926 37.3122C129.853 37.8518 129.994 38.0921 130.342 38.2644C130.56 38.3732 130.759 38.405 130.714 38.7496C130.682 38.9944 130.546 39.1395 130.297 39.1395C130.061 39.1395 129.926 38.999 129.853 38.8448H129.708L129.636 39.3889C129.79 39.5385 129.957 39.6383 130.247 39.6428ZM128.707 39.6383C129.205 39.6383 129.509 39.2891 129.59 38.6679C129.667 38.083 129.513 37.8609 129.092 37.684C128.865 37.5888 128.743 37.5117 128.779 37.2533C128.811 36.9948 128.947 36.886 129.164 36.886C129.337 36.886 129.45 36.9767 129.54 37.0991H129.681L129.749 36.5867C129.636 36.4643 129.45 36.3782 129.214 36.3782C128.802 36.3782 128.467 36.6865 128.385 37.3077C128.313 37.8473 128.453 38.0876 128.802 38.2599C129.019 38.3687 129.219 38.4004 129.173 38.745C129.142 38.9944 129.006 39.1395 128.757 39.1395C128.521 39.1395 128.385 38.9989 128.313 38.8493H128.168L128.095 39.3934C128.249 39.5385 128.417 39.6383 128.707 39.6383ZM126.518 39.602H127.882L127.95 39.0987H127.03L127.144 38.2236H127.778L127.841 37.7339H127.207L127.311 36.9223H128.199L128.267 36.4099H126.935L126.518 39.602ZM124.516 39.5975H124.892L125.195 37.2669H125.204L125.748 39.5975H126.156L126.573 36.4099H126.197L125.929 38.4548H125.92L125.445 36.4099H124.933L124.516 39.5975ZM123.714 39.5975L124.063 36.9087H124.62L124.683 36.4099H123.129L123.066 36.9087H123.619L123.265 39.5975H123.714ZM122.871 36.4099H122.418L122.001 39.5975H122.454L122.871 36.4099ZM120.837 39.5975L121.009 38.2871H121.698L121.761 37.8019H121.072L121.186 36.9223H122.083L122.151 36.4099L120.805 36.4054L120.388 39.5929L120.837 39.5975Z" fill="#20A2DC"/>
<path d="M42.6531 20.7033C41.9825 9.51287 32.7034 0.639404 21.3492 0.639404C9.55548 0.639404 0 10.2021 0 22.0001C0 33.7982 9.55548 43.3608 21.3492 43.3608C29.2419 43.3608 36.1287 39.0714 39.8213 32.7009C38.9242 31.3633 38.4032 29.7536 38.4032 28.0216C38.4032 24.8884 40.1158 22.1588 42.6531 20.7033Z" fill="#E32A28"/>
<path d="M21.3491 31.1546C16.5736 20.3224 13.0713 10.2065 13.0713 10.2065H5.74951C5.74951 10.2065 10.2033 23.1926 18.4811 39.4341H24.2126C32.4904 23.1926 36.9442 10.2065 36.9442 10.2065H29.6224C29.6224 10.2065 26.12 20.3224 21.3491 31.1546Z" fill="white"/>
<path d="M125.911 33.9432L128.163 13.0767C128.417 10.7144 128.19 10.3063 126.536 10.3018L123.533 10.2927L120.982 33.9296L125.911 33.9432Z" fill="white"/>
<path d="M133.695 33.9613L135.258 19.4744C135.553 16.772 135.372 16.2325 133.754 16.2279L130.682 16.2234L128.766 33.9522L133.695 33.9613Z" fill="white"/>
<path d="M133.328 14.8451C134.814 14.8496 136.119 13.7024 136.273 12.2515C136.432 10.8005 135.376 9.61256 133.89 9.61256C132.404 9.60803 131.063 10.7869 130.904 12.2424C130.755 13.6888 131.842 14.8405 133.328 14.8451Z" fill="white"/>
<path d="M137.243 19.5471L139.336 19.5516L137.782 33.9705L142.712 33.9795L144.266 19.5607L147.641 19.5652L147.999 16.2553L144.624 16.2462L144.75 15.0673C144.895 13.7161 145.806 13.4168 147.188 13.4168H148.538L148.855 10.4787C148.207 10.2066 147.387 10.0026 145.969 9.99806C142.494 9.99352 140.202 11.5079 139.839 14.8814L139.694 16.2326L137.601 16.2281L137.243 19.5471Z" fill="white"/>
<path d="M156.068 19.606C152.937 19.597 152.33 22.975 152.33 22.975L159.077 22.9931C159.077 22.9886 159.199 19.6106 156.068 19.606ZM162.81 26.3711L151.963 26.3484C151.963 26.3484 151.814 29.9667 156.635 29.9758C159.045 29.9803 161.532 29.2639 161.532 29.2639L161.6 33.1225C161.6 33.1225 159.086 34.0793 155.715 34.0747C150.894 34.0657 146.816 31.6444 147.546 24.8975C148.117 19.597 151.855 16.2235 156.675 16.2371C163.902 16.2462 163.603 23.4783 162.81 26.3711Z" fill="white"/>
<path d="M107.91 20.8893C103.774 20.8893 103.456 25.3464 103.456 25.3464H112.369C112.369 25.3509 112.047 20.8893 107.91 20.8893ZM117.778 29.8081H103.456C103.456 29.8081 103.774 34.5871 110.139 34.5871C113.32 34.5871 116.505 33.6304 116.505 33.6304L117.144 38.7269C117.144 38.7269 113.959 40.001 109.505 40.001C103.139 40.001 97.4124 36.8134 97.4124 27.8992C97.4124 20.8938 101.866 16.4321 108.232 16.4321C117.778 16.4321 118.413 25.9857 117.778 29.8081Z" fill="white"/>
<path d="M71.1792 22.236L72.1352 17.1395C72.1352 17.1395 64.759 14.8996 58.7693 19.0529V39.4342H65.1351V22.8753C67.6814 20.9618 71.1792 22.236 71.1792 22.236Z" fill="white"/>
<path d="M45.4939 20.8893C41.3573 20.8893 41.0401 25.3464 41.0401 25.3464H49.9522C49.9522 25.3509 49.6305 20.8893 45.4939 20.8893ZM55.362 29.8081H41.0401C41.0401 29.8081 41.3573 34.5871 47.723 34.5871C50.9082 34.5871 54.0888 33.6304 54.0888 33.6304L54.7232 38.7269C54.7232 38.7269 51.5425 40.001 47.0842 40.001C40.7184 40.001 34.9915 36.8134 34.9915 27.8992C34.9915 20.8938 39.4498 16.4321 45.8156 16.4321C55.362 16.4321 55.9963 25.9857 55.362 29.8081Z" fill="white"/>
<path d="M85.6007 31.794C82.4156 24.1493 80.8253 16.949 80.8253 16.949H74.4595C74.4595 16.949 77.6401 29.2458 83.0499 39.4342H88.1425C93.5523 29.2458 96.7375 16.9535 96.7375 16.9535H90.3717C90.3762 16.9535 88.7859 24.1493 85.6007 31.794Z" fill="white"/>
</svg>
