<svg width="104" height="65" viewBox="0 0 104 65" fill="none" xmlns="http://www.w3.org/2000/svg">
<path fill-rule="evenodd" clip-rule="evenodd" d="M35.9979 18.2913C35.9979 28.3913 27.9376 36.5825 17.999 36.5825C8.06036 36.5825 0 28.4022 0 18.2913C0 8.18035 8.06036 3.8147e-06 17.999 3.8147e-06C27.9483 3.8147e-06 35.9979 8.19126 35.9979 18.2913Z" fill="#EE312A"/>
<path fill-rule="evenodd" clip-rule="evenodd" d="M17.9989 26.133C13.9741 16.8619 11.0226 8.19077 11.0226 8.19077H4.8512C4.8512 8.19077 8.60768 19.3161 15.584 33.2227H20.4138C27.3901 19.3161 31.1466 8.19077 31.1466 8.19077H24.9752C24.9752 8.19077 22.0237 16.851 17.9989 26.133Z" fill="white"/>
<path fill-rule="evenodd" clip-rule="evenodd" d="M95.5224 17.3419C92.0343 17.3419 91.7659 21.1594 91.7659 21.1594H99.2789C99.2789 21.1594 99.0106 17.3419 95.5224 17.3419ZM103.851 24.9769L91.7659 24.9769C91.7659 24.9769 92.0343 29.0671 97.4007 29.0671C100.084 29.0671 102.767 28.2491 102.767 28.2491L103.304 32.6119C103.304 32.6119 100.621 33.7026 96.864 33.7026C91.4976 33.7026 86.6678 30.9758 86.6678 23.3408C86.6678 17.3419 90.4243 13.5244 95.7907 13.5244C103.851 13.5244 104.388 21.7048 103.851 24.9769ZM62.7766 18.5308L63.603 14.0261C63.603 14.0261 57.1848 12.052 51.9686 15.7168V33.7354H57.5068V19.098C59.7285 17.4074 62.7766 18.5308 62.7766 18.5308ZM39.6903 17.3419C36.2021 17.3419 35.9338 21.1594 35.9338 21.1594H43.4468C43.4468 21.1594 43.1784 17.3419 39.6903 17.3419ZM48.0082 24.9769H35.9338C35.9338 24.9769 36.2021 29.0671 41.5685 29.0671C44.2517 29.0671 46.9349 28.2491 46.9349 28.2491L47.4716 32.6119C47.4716 32.6119 44.7884 33.7026 41.0319 33.7026C35.6655 33.7026 30.8357 30.9758 30.8357 23.3408C30.8357 17.3419 34.5922 13.5244 39.9586 13.5244C48.0082 13.5244 48.5449 21.7048 48.0082 24.9769ZM76.2999 26.842C73.4879 19.9814 72.0819 13.5244 72.0819 13.5244H66.4579C66.4579 13.5244 69.2699 24.5624 74.0568 33.7026H78.5538C83.3299 24.5624 86.1527 13.5244 86.1527 13.5244H80.5287C80.5179 13.5244 79.1119 19.9814 76.2999 26.842Z" fill="white"/>
<path d="M94.8245 44.2066C94.7172 44.3593 94.6099 44.512 94.5133 44.6756C93.1287 46.8679 91.6798 49.0166 89.8016 50.8163C88.9751 51.6125 88.1165 52.3542 86.9896 52.6923C86.2275 52.9214 85.927 52.7469 85.7553 51.9615C85.5084 50.8163 85.9163 49.8019 86.3671 48.7003C86.4315 48.853 86.4637 48.9185 86.4851 48.9839C87.011 50.2055 87.9126 50.5 88.9859 49.7256C89.4474 49.3875 89.866 48.9512 90.2309 48.504C91.0466 47.5005 91.6261 46.3662 91.7871 45.0464C91.9374 43.8357 91.4652 42.6578 90.5636 42.1233C89.5976 41.5452 88.5244 41.6543 87.4833 42.4396C86.6246 43.0831 86.0021 43.923 85.4011 44.7956C85.283 44.9701 85.1542 45.1664 84.9825 45.2537C83.9092 45.8317 82.836 46.4098 81.7197 46.9115C81.2368 47.1297 80.6787 47.1515 80.0776 47.2715C80.142 47.0861 80.1635 47.0097 80.1957 46.9443C81.2046 44.8828 82.1491 42.7996 83.2331 40.7817C84.4781 38.4476 85.648 36.048 87.6765 34.2484C87.9019 34.052 87.8697 33.8012 87.6872 33.6049C87.3652 33.2558 87.0325 32.8959 86.6568 32.6123C85.7338 31.9142 85.2401 31.9797 84.4673 32.8414C84.4137 32.8959 84.3708 32.9504 84.3278 33.0159C83.8341 33.7357 83.2975 34.4229 82.8467 35.1646C80.6679 38.7421 78.897 42.5378 77.2656 46.4098C77.1261 46.737 76.9758 46.8134 76.6646 46.7043C76.3426 46.5952 76.0099 46.5298 75.602 46.4316C75.6342 46.6934 75.602 46.9334 75.7094 47.0861C75.924 47.4133 76.2031 47.6969 76.4714 48.0241C75.4625 49.4202 74.3785 50.849 73.0369 52.0379C72.6505 52.3869 72.1675 52.6378 71.7275 52.9214C71.6738 52.8887 71.6201 52.845 71.5665 52.8123C71.5665 52.5505 71.5235 52.2888 71.5772 52.0379C72.189 49.3329 73.3803 46.9006 74.8615 44.5883C74.9581 44.4356 75.0868 44.2829 75.2371 44.2066C75.6342 44.0103 75.645 43.683 75.4196 43.4213C74.9688 42.9086 74.4858 42.4178 73.9706 41.9815C73.6165 41.687 73.2086 41.7852 72.9081 42.1669C72.7149 42.4178 72.5002 42.6469 72.3285 42.9195C71.1157 44.8392 70.2034 46.9115 69.6453 49.1148C69.4092 50.0419 69.2482 51.0126 69.2053 51.9615C69.1623 52.8777 69.7741 53.4995 70.5683 53.8594C71.3626 54.2302 72.1568 54.2848 72.8544 53.6085C73.3481 53.1286 73.8204 52.616 74.2819 52.1142C74.5287 51.8525 74.7434 51.558 74.9581 51.2744C75.162 51.0017 75.3659 50.729 75.5698 50.4564C75.602 50.5654 75.5698 50.6309 75.5484 50.7072C74.3892 53.8048 73.3159 56.9243 72.7256 60.1964C72.5754 61.0254 72.4251 61.8761 72.4573 62.716C72.511 63.7849 73.2515 64.3957 74.196 64.7447C75.1727 65.1046 75.9455 64.7229 76.5787 63.9703C79.1975 60.8727 80.2815 57.1533 80.6465 53.1831C80.7967 51.5144 80.6572 49.8565 80.0669 48.2204C81.6983 47.915 83.1365 47.2169 84.4673 46.268C84.3708 46.5516 84.242 46.8025 84.1346 47.0533C83.5121 48.5367 83.1043 50.0528 83.4263 51.678C83.8448 53.7939 85.9055 54.7647 87.7516 53.674C88.3634 53.314 88.9429 52.8559 89.4474 52.3542C91.7013 50.1073 93.3327 47.3915 94.8997 44.6429C94.9641 44.5338 94.9426 44.3702 94.9641 44.2284C94.9104 44.2393 94.8675 44.2284 94.8245 44.2066ZM91.0036 43.5303C91.2505 45.6354 88.8034 48.2749 86.6354 48.1877C87.7409 46.2462 88.8785 44.4465 91.0036 43.5303ZM79.8093 53.2595C79.5302 56.259 78.5965 59.0403 76.9651 61.5707C76.4392 62.3779 75.8059 63.0977 74.8185 63.654C74.8722 63.0323 74.8937 62.5196 74.9795 62.007C75.3444 59.7929 76.0313 57.666 76.7934 55.5718C77.5447 53.4995 78.3604 51.4598 79.1546 49.4093C79.1975 49.3002 79.2619 49.202 79.3371 49.0384C79.9059 50.4345 79.9381 51.8525 79.8093 53.2595Z" fill="white"/>
<path d="M64.9874 37.4223C66.0821 35.3173 67.3164 33.2776 68.5185 31.2271C68.7439 30.8453 69.0766 30.5181 69.42 30.2345C69.7635 29.9619 69.8601 29.831 69.581 29.482C69.2483 29.0784 68.8834 28.6966 68.4756 28.3694C67.6169 27.6714 67.2842 27.7041 66.6617 28.6094C65.7279 29.9728 64.8049 31.3471 63.9678 32.7759C61.8105 36.4407 59.9644 40.2691 58.2042 44.1411C56.7982 47.2278 55.4888 50.3473 54.598 53.6412C54.5014 54.0121 54.3189 54.1212 53.9862 54.2193C52.9237 54.5138 51.9363 54.9719 51.2279 55.8772C50.6268 56.6516 50.7342 57.4805 51.5284 58.0368C51.8933 58.2986 52.3334 58.484 52.7734 58.6149C53.5569 58.8548 54.3619 59.0075 55.1883 58.9421C54.1472 58.4513 53.1061 57.9714 52.0865 57.4587C51.8504 57.3388 51.6679 57.1315 51.3781 56.8807C51.7431 56.7498 51.9792 56.5971 52.2153 56.5862C52.9666 56.5643 53.7394 56.4989 54.4692 56.6407C56.7982 57.1097 59.1165 57.6769 61.4348 58.1786C62.9159 58.4949 64.3971 58.8548 65.9319 58.7676C67.2949 58.6912 67.9604 58.1241 68.1428 56.7607C68.2394 56.0081 68.3575 55.2664 68.7009 54.5793C68.7653 54.4484 68.7868 54.2629 68.7439 54.143C68.6902 53.9794 68.5614 53.8267 68.4219 53.7176C68.3897 53.6958 68.1536 53.8485 68.0784 53.9685C67.6813 54.6883 67.0803 55.1682 66.2968 55.2664C65.4811 55.3646 64.6225 55.4518 63.8175 55.3209C61.6709 54.9937 59.5458 54.5574 57.3671 54.1648C57.4851 53.8485 57.5925 53.5431 57.6998 53.2595C59.8356 47.8386 62.3042 42.5814 64.9874 37.4223Z" fill="white"/>
</svg>
