<svg width="164" height="43" viewBox="0 0 164 43" fill="none" xmlns="http://www.w3.org/2000/svg">
<path d="M160.123 38.491L160.409 36.3146H160.586C161.007 36.3146 161.161 36.6093 161.057 37.3983C160.953 38.1872 160.721 38.4956 160.3 38.4956H160.123V38.491ZM159.607 38.9898H160.232C160.921 38.9898 161.374 38.4684 161.514 37.3847C161.659 36.2919 161.338 35.8022 160.658 35.8022H160.019L159.607 38.9898ZM158.433 38.5364C158.134 38.5364 157.971 38.1872 158.071 37.4119C158.171 36.6275 158.429 36.2693 158.728 36.2693C159.022 36.2693 159.19 36.632 159.086 37.4119C158.986 38.1918 158.728 38.5364 158.433 38.5364ZM158.37 39.0261C158.886 39.0261 159.417 38.4502 159.553 37.3983C159.688 36.3464 159.312 35.766 158.796 35.766C158.279 35.766 157.749 36.3418 157.613 37.3983C157.473 38.4502 157.853 39.0261 158.37 39.0261ZM156.327 38.5318C156.032 38.5318 155.864 38.1872 155.964 37.4074C156.068 36.6229 156.327 36.2647 156.621 36.2647C156.916 36.2647 157.083 36.6275 156.979 37.4074C156.879 38.1872 156.621 38.5364 156.327 38.5318ZM156.263 39.0261C156.78 39.0261 157.31 38.4502 157.446 37.3983C157.582 36.3464 157.206 35.766 156.689 35.766C156.173 35.766 155.642 36.3418 155.507 37.3983C155.366 38.4457 155.747 39.0261 156.263 39.0261ZM154.306 38.9853L154.478 37.6794H155.167L155.23 37.1942H154.541L154.659 36.3146H155.552L155.62 35.8022L154.274 35.7977L153.857 38.9853H154.306ZM152.494 38.9853L152.657 37.7338L153.468 35.9972L153.495 35.7977H153.15L152.539 37.1353H152.534L152.253 35.7977H151.832L151.809 35.9972L152.208 37.752L152.045 38.9853H152.494ZM149.993 38.9807L150.174 37.6023H150.917L150.736 38.9807H151.184L151.601 35.7932H151.152L150.98 37.1036H150.237L150.409 35.7932H149.961L149.544 38.9807H149.993ZM148.737 38.9807L149.086 36.2919H149.639L149.703 35.7886H148.148L148.081 36.2919H148.633L148.284 38.9807H148.737ZM147.868 38.9807L147.936 38.482H147.102L147.451 35.7932H146.998L146.581 38.9807H147.868ZM145.715 36.5051H145.72L145.806 37.6794H145.321L145.715 36.5051ZM144.537 38.9762H144.9L145.167 38.1646H145.851L145.915 38.9762H146.35L146.377 38.7903L146.096 35.7886H145.634L144.574 38.7903L144.537 38.9762ZM143.015 38.9762H144.379L144.442 38.4729H143.523L143.64 37.5978H144.275L144.338 37.1126H143.704L143.808 36.301H144.696L144.764 35.7886H143.432L143.015 38.9762ZM141.466 38.9762L141.647 37.5978H142.39L142.213 38.9762H142.662L143.078 35.7886H142.63L142.458 37.099H141.715L141.887 35.7886H141.438L141.021 38.9762H141.466ZM139.259 38.6316C138.969 38.6316 138.878 38.3505 138.924 38.0285C138.969 37.7021 139.096 37.5298 139.25 37.3983L139.658 38.3777C139.54 38.5364 139.418 38.6316 139.259 38.6316ZM139.911 38.9717H140.206L140.224 38.822L139.993 38.2734C140.138 37.9832 140.274 37.6069 140.36 37.2305L140.374 37.1126H140.12C140.065 37.4164 139.966 37.7247 139.862 37.9696L139.504 37.1126C139.409 36.8905 139.372 36.7499 139.395 36.5549C139.431 36.2965 139.567 36.1287 139.735 36.1287C139.88 36.1287 139.957 36.2103 140.011 36.3101H140.129L140.174 35.9428C140.093 35.8249 139.979 35.7478 139.78 35.7478C139.418 35.7478 139.155 36.0743 139.096 36.5459C139.064 36.7998 139.091 36.9811 139.141 37.1444C138.892 37.3031 138.656 37.5978 138.598 38.0648C138.525 38.6135 138.711 38.9943 139.155 38.9943C139.39 38.9943 139.594 38.8583 139.762 38.6407L139.911 38.9717ZM136.019 38.9717H136.396L136.699 36.6411H136.708L137.256 38.9717H137.664L138.081 35.7841H137.7L137.433 37.829H137.424L136.944 35.7796H136.432L136.019 38.9717ZM134.977 38.482C134.719 38.482 134.588 38.3369 134.665 37.7384L134.919 35.7796H134.47L134.216 37.7202C134.107 38.5409 134.334 39.0034 134.882 39.0034C135.453 39.0034 135.725 38.5409 135.834 37.7202L136.087 35.7796H135.711L135.458 37.7384C135.376 38.3369 135.222 38.482 134.977 38.482ZM132.907 38.9671L133.079 37.6613H133.768L133.831 37.1761H133.142L133.256 36.2965H134.153L134.221 35.7796H132.875L132.458 38.9671H132.907ZM131.14 39.1757L131.104 39.4659C131.439 39.416 131.625 39.1666 131.688 38.6996C131.724 38.4049 131.625 38.2598 131.493 38.2598C131.362 38.2598 131.249 38.3958 131.221 38.5772C131.203 38.7132 131.226 38.7903 131.271 38.8492C131.316 38.8991 131.357 38.9036 131.344 38.9898C131.335 39.0759 131.262 39.1485 131.14 39.1757ZM130.247 39.0034C130.746 39.0034 131.049 38.6543 131.131 38.0331C131.208 37.4436 131.049 37.226 130.632 37.0492C130.406 36.9539 130.283 36.8723 130.32 36.6184C130.351 36.36 130.487 36.2511 130.705 36.2511C130.877 36.2511 130.99 36.3418 131.081 36.4642H131.221L131.289 35.9519C131.176 35.8295 130.99 35.7433 130.755 35.7433C130.342 35.7433 130.007 36.0516 129.926 36.6728C129.853 37.2124 129.994 37.4527 130.342 37.625C130.56 37.7338 130.759 37.7656 130.714 38.1102C130.682 38.355 130.546 38.5001 130.297 38.5001C130.061 38.5001 129.926 38.3595 129.853 38.2054H129.708L129.636 38.7495C129.79 38.8991 129.957 38.9989 130.247 39.0034ZM128.707 38.9989C129.205 38.9989 129.509 38.6497 129.59 38.0285C129.667 37.4436 129.513 37.2215 129.092 37.0446C128.865 36.9494 128.743 36.8723 128.779 36.6139C128.811 36.3554 128.947 36.2466 129.164 36.2466C129.337 36.2466 129.45 36.3373 129.54 36.4597H129.681L129.749 35.9473C129.636 35.8249 129.45 35.7388 129.214 35.7388C128.802 35.7388 128.467 36.0471 128.385 36.6683C128.313 37.2079 128.453 37.4482 128.802 37.6205C129.019 37.7293 129.219 37.761 129.173 38.1056C129.142 38.355 129.006 38.5001 128.757 38.5001C128.521 38.5001 128.385 38.3595 128.313 38.2099H128.168L128.095 38.754C128.249 38.8991 128.417 38.9989 128.707 38.9989ZM126.518 38.9626H127.882L127.95 38.4593H127.03L127.144 37.5842H127.778L127.841 37.0945H127.207L127.311 36.2829H128.199L128.267 35.7705H126.935L126.518 38.9626ZM124.516 38.9581H124.892L125.195 36.6275H125.204L125.748 38.9581H126.156L126.573 35.7705H126.197L125.929 37.8154H125.92L125.445 35.7705H124.933L124.516 38.9581ZM123.714 38.9581L124.063 36.2693H124.62L124.683 35.7705H123.129L123.066 36.2693H123.619L123.265 38.9581H123.714ZM122.871 35.7705H122.418L122.001 38.9581H122.454L122.871 35.7705ZM120.837 38.9581L121.009 37.6477H121.698L121.761 37.1625H121.072L121.186 36.2829H122.083L122.151 35.7705L120.805 35.766L120.388 38.9535L120.837 38.9581Z" fill="#20A2DC"/>
<path d="M42.6531 20.0639C41.9825 8.87347 32.7034 0 21.3492 0C9.55548 0 0 9.56268 0 21.3607C0 33.1588 9.55548 42.7214 21.3492 42.7214C29.2419 42.7214 36.1287 38.432 39.8213 32.0615C38.9242 30.7239 38.4032 29.1142 38.4032 27.3822C38.4032 24.249 40.1158 21.5194 42.6531 20.0639Z" fill="#E32A28"/>
<path d="M21.3492 30.5152C16.5737 19.683 13.0714 9.56714 13.0714 9.56714H5.74957C5.74957 9.56714 10.2034 22.5531 18.4812 38.7947H24.2126C32.4904 22.5531 36.9442 9.56714 36.9442 9.56714H29.6224C29.6224 9.56714 26.1201 19.683 21.3492 30.5152Z" fill="white"/>
<path d="M125.911 33.3038L128.163 12.4373C128.417 10.075 128.19 9.66692 126.537 9.66238L123.533 9.65332L120.982 33.2902L125.911 33.3038Z" fill="#02425F"/>
<path d="M133.695 33.3219L135.258 18.835C135.553 16.1326 135.372 15.5931 133.754 15.5885L130.682 15.584L128.766 33.3128L133.695 33.3219Z" fill="#02425F"/>
<path d="M133.328 14.2057C134.814 14.2102 136.119 13.063 136.273 11.6121C136.432 10.1611 135.376 8.97316 133.89 8.97316C132.404 8.96862 131.063 10.1475 130.904 11.603C130.755 13.0494 131.842 14.2011 133.328 14.2057Z" fill="white"/>
<path d="M137.243 18.9077L139.336 18.9122L137.782 33.3311L142.711 33.3401L144.266 18.9213L147.641 18.9258L147.999 15.6159L144.623 15.6068L144.75 14.4279C144.895 13.0767 145.806 12.7774 147.188 12.7774H148.538L148.855 9.83928C148.207 9.56723 147.387 9.36319 145.969 9.35865C142.494 9.35412 140.201 10.8685 139.839 14.242L139.694 15.5932L137.601 15.5887L137.243 18.9077Z" fill="#02425F"/>
<path d="M156.068 18.9666C152.938 18.9576 152.33 22.3356 152.33 22.3356L159.077 22.3537C159.077 22.3491 159.199 18.9712 156.068 18.9666ZM162.81 25.7317L151.963 25.709C151.963 25.709 151.814 29.3273 156.635 29.3364C159.045 29.3409 161.533 28.6245 161.533 28.6245L161.601 32.4831C161.601 32.4831 159.086 33.4399 155.715 33.4353C150.894 33.4263 146.816 31.005 147.546 24.2581C148.117 18.9576 151.855 15.5841 156.676 15.5977C163.902 15.6068 163.603 22.8388 162.81 25.7317Z" fill="#02425F"/>
<path d="M107.91 20.2499C103.774 20.2499 103.457 24.707 103.457 24.707H112.369C112.369 24.7115 112.047 20.2499 107.91 20.2499ZM117.778 29.1687H103.457C103.457 29.1687 103.774 33.9477 110.14 33.9477C113.32 33.9477 116.505 32.991 116.505 32.991L117.144 38.0875C117.144 38.0875 113.959 39.3616 109.505 39.3616C103.139 39.3616 97.4125 36.174 97.4125 27.2598C97.4125 20.2544 101.866 15.7927 108.232 15.7927C117.778 15.7927 118.413 25.3463 117.778 29.1687Z" fill="#02425F"/>
<path d="M71.1791 21.5966L72.1351 16.5001C72.1351 16.5001 64.759 14.2602 58.7692 18.4135V38.7948H65.135V22.2359C67.6813 20.3224 71.1791 21.5966 71.1791 21.5966Z" fill="#02425F"/>
<path d="M45.4939 20.2499C41.3573 20.2499 41.0401 24.707 41.0401 24.707H49.9522C49.9522 24.7115 49.6305 20.2499 45.4939 20.2499ZM55.362 29.1687H41.0401C41.0401 29.1687 41.3573 33.9477 47.723 33.9477C50.9082 33.9477 54.0888 32.991 54.0888 32.991L54.7232 38.0875C54.7232 38.0875 51.5425 39.3616 47.0842 39.3616C40.7184 39.3616 34.9915 36.174 34.9915 27.2598C34.9915 20.2544 39.4498 15.7927 45.8156 15.7927C55.362 15.7927 55.9963 25.3463 55.362 29.1687Z" fill="#02425F"/>
<path d="M85.6007 31.1546C82.4155 23.5099 80.8252 16.3096 80.8252 16.3096H74.4594C74.4594 16.3096 77.64 28.6064 83.0498 38.7948H88.1425C93.5522 28.6064 96.7374 16.3141 96.7374 16.3141H90.3716C90.3762 16.3141 88.7858 23.5099 85.6007 31.1546Z" fill="#02425F"/>
</svg>
